<svg width="83" height="67" viewBox="0 0 83 67" xmlns="http://www.w3.org/2000/svg"><title>Award winning support</title><g transform="translate(-93 -52)" fill="none" fill-rule="evenodd" stroke-linecap="round"><path d="M115.663 117.904l8.477-21.014c4.05-1.815 5.745-6.4 4.238-10.699l-7.064-20.824m-2.826 9.552l-5.65-16.238s-.848-4.203-4.71-2.866l-5.651 1.91 7.535 20.06-3.768 1.91-5.274-5.253c-1.413-1.338-3.485-1.624-5.275-.764l-1.224.764 17.424 21.492-11.302 21.97m7.252-60.465l5.934 18.436m36.733-11.463l-8.477 21.97c-.942 3.821 1.413 5.827 3.673 7.26l1.978 8.024" stroke="#BABEC5" stroke-width="1.89" stroke-linejoin="round"/><path d="M152.395 86.382c1.319-9.934 11.303-8.597 11.303-8.597l3.673-4.012c1.507-1.72 3.956-2.101 5.84-.955l1.318.669-16.482 20.537 1.883 7.642-14.128 3.82 2.826 12.418m15.07-45.946l5.274-12.99-6.216-1.243c-2.072-.286-3.862 1.051-4.71 2.962l-5.65 13.086m11.867-15.379l-6.216 14.52" stroke="#BABEC5" stroke-width="1.89" stroke-linejoin="round"/><path d="M128.849 65.367l-4.71-8.597m17.896 8.597l4.71-8.597m-11.303-1.91v8.597" stroke="#53B700" stroke-width="3.78"/><path d="M152.395 109.212l8.571-3.152c.942-.382 2.072.19 2.45 1.146l4.05 10.698" stroke="#BABEC5" stroke-width="1.89" stroke-linejoin="round"/></g></svg>