<svg width="62" height="67" viewBox="0 0 62 67" xmlns="http://www.w3.org/2000/svg" xmlns:xlink="http://www.w3.org/1999/xlink"><title>Call sales</title><defs><path d="M9.193 4.392c0 2.46-1.913 4.392-4.348 4.392C2.41 8.784.497 6.85.497 4.392.497 1.932 2.41 0 4.845 0 7.28 0 9.193 1.932 9.193 4.392z" id="a"/><path d="M4.845 2.635c0 .966-.783 1.757-1.74 1.757h-.869c-.956 0-1.74-.79-1.74-1.757v-.878C.497.79 1.28 0 2.237 0h.87c.956 0 1.739.79 1.739 1.757v.878z" id="c"/><path d="M6.584.79c.26-.439.609-.439.87 0l1.565 2.9c.26.438.782.878 1.304.965l3.217.615c.435.088.61.44.261.79l-2.26 2.372c-.348.352-.522 1.054-.522 1.494l.434 3.25c.087.439-.26.702-.695.527L7.8 12.297c-.435-.175-1.13-.175-1.565 0L3.28 13.703c-.435.175-.783 0-.696-.527l.435-3.25c.087-.44-.174-1.142-.522-1.494L.236 6.061c-.348-.352-.174-.703.26-.79l3.218-.616c.435-.087 1.044-.527 1.305-.966L6.584.791z" id="e"/></defs><g transform="translate(1 1)" fill="none" fill-rule="evenodd"><g transform="translate(19.13 18.446)"><mask id="b" fill="#fff"><use xlink:href="#a"/></mask><path fill="#53B700" mask="url(#b)" d="M-3.85093043 13.1756757L13.5403739 13.1756757 13.5403739 -4.39189189 -3.85093043 -4.39189189z"/></g><path d="M45.714 7.027c-6.87 4.392-21.739 4.392-21.739 4.392v4.392" stroke="#BABEC5" stroke-width="1.729" stroke-linecap="round" stroke-linejoin="round"/><g transform="translate(35.652 39.527)"><mask id="d" fill="#fff"><use xlink:href="#c"/></mask><path fill="#53B700" mask="url(#d)" d="M-3.85093043 8.78378378L9.19254783 8.78378378 9.19254783 -4.39189189 -3.85093043 -4.39189189z"/></g><g stroke-linecap="round" stroke-linejoin="round" stroke-width="1.729"><path d="M32.67 36.892h8.436c5.652 0 9.826-4.656 9.826-10.365V10.189C50.932 4.568 46.758 0 41.192 0h-15.39C19.713 0 14.41 5.007 14.41 11.068v35.486h-4.348c-5.304 0-9.565 4.304-9.565 9.662V65" stroke="#BABEC5"/><path d="M44.845 28.986s-1.218 3.602-5.218 3.514c-4.434-.088-5.217-3.514-5.217-3.514h10.435zm6.087-11.418h-6.957c-.956 0-1.739.79-1.739 1.756v5.27m-16.174 21.96l6.957 12.297 7.826-12.297h9.217c5.304 0 9.565 4.304 9.565 9.662v7.906" stroke="#BABEC5"/><path d="M23.975 29.865v7.905c0 2.46 1.913 4.392 4.348 4.392h4.348" stroke="#53B700"/></g><g transform="translate(9.565 50.946)"><mask id="f" fill="#fff"><use xlink:href="#e"/></mask><path fill="#53B700" mask="url(#f)" d="M-4.29683478 18.160473L18.3341043 18.160473 18.3341043 -3.93074324 -4.29683478 -3.93074324z"/></g></g></svg>