<svg width="81" height="65" viewBox="0 0 81 65" xmlns="http://www.w3.org/2000/svg" xmlns:xlink="http://www.w3.org/1999/xlink"><title>chat illustration</title><defs><path d="M14.96 29.36c7.909 0 14.32-6.411 14.32-14.32C29.28 7.131 22.869.72 14.96.72 7.051.72.64 7.131.64 15.04c0 7.909 6.411 14.32 14.32 14.32z" id="a"/></defs><g transform="translate(1)" fill="none" fill-rule="evenodd"><g transform="translate(0 .8)" stroke="#BABEC5" stroke-linecap="round" stroke-linejoin="round" stroke-width="1.6"><path d="M30.4 49.6v-2.56c0-4.72 3.12-8.64 7.84-8.64h6.56l5.6 8.8 5.44-8.8"/><path d="M52.8 32h-7.28C40.24 32 36 27.68 36 22.4V9.6C36 4.32 40.24 0 45.52 0h11.2C62 0 66.4 4.32 66.4 9.6v28.8h3.12c4.88 0 8.88 3.92 8.88 8.72v10.24c0 2.32-2 4.16-4.32 4.16H48.8v-4"/><path d="M40 6.4s8 3.92 18.4 0v8s3.84.8 3.84 4.8c0 4.48-3.84 4.8-3.84 4.8M32.8 57.68l6.16.08c.88-.08 1.68.64 1.68 1.52V60.96c0 .88-.72 1.6-1.68 1.6H11.04m18.32-4.88l-5.2-18.48c-.32-.88-1.12-1.52-2-1.52H1.36c-.64-.08-1.2.4-1.2 1.04 0 .16 0 .32.08.48l4.72 16.96c.32.88 1.12 1.52 2 1.52h22.4z"/><path d="M16.72 31.2l2.32 6.4" stroke-dasharray="1.6,3.2"/></g><g transform="translate(.8)"><mask id="b" fill="#fff"><use xlink:href="#a"/></mask><path fill="#53B700" mask="url(#b)" d="M-3.36 33.36L33.28 33.36 33.28 -3.28 -3.36 -3.28z"/><text mask="url(#b)" font-family="Ionicons" font-size="16" font-weight="400" fill="#FFF"><tspan x="8" y="20.4">ï„</tspan></text></g><g transform="translate(32.8 15.2)" stroke="#BABEC5" stroke-linecap="round" stroke-linejoin="round" stroke-width="1.6"><path d="M33.6 32.8v6.4c0 .88-.72 1.6-1.6 1.6H17.6c-.88 0-2.32-.16-3.12-.4l-8.16-2.32c-.88-.24-2 .08-2.56.8L0 43.2M18.32 9.6s-1.2 2.4-4.4 2.4-4.4-2.4-4.4-2.4M3.2 0h6.32c.88 0 1.68.72 1.68 1.6v4.8"/></g></g></svg>