<svg width="126" height="61" viewBox="0 0 126 61" xmlns="http://www.w3.org/2000/svg" xmlns:xlink="http://www.w3.org/1999/xlink"><title>Claim every dollar</title><defs><path d="M8.612 5.16c-.538 1.2-2.81 1.44-5.083.42S-.18 2.82.359 1.62C.897.42 3.169.18 5.443 1.2c2.272 1.02 3.708 2.76 3.17 3.96z" id="a"/><path d="M8.672 5.28c-.598 1.74-2.99 2.4-5.323 1.56C1.017 6-.359 3.9.3 2.16.957.42 3.289-.24 5.622.6c2.333.84 3.708 2.94 3.05 4.68z" id="c"/><path d="M8.852 1.2c.538 1.26-.897 3.12-3.17 4.02-2.273.96-4.546.66-5.084-.6C.06 3.36 1.495 1.5 3.768.6c2.273-.9 4.605-.66 5.084.6z" id="e"/><path d="M8.792 3.78C8.492 5.1 6.28 5.7 3.888 5.1 1.495 4.5-.24 3.06.06 1.74.359.42 2.572-.18 4.964.42c2.392.6 4.127 2.04 3.828 3.36z" id="g"/><path d="M8.971 3.66c0 1.8-2.033 3.3-4.485 3.3C2.033 6.96 0 5.46 0 3.66 0 1.86 2.033.36 4.486.36c2.452 0 4.485 1.5 4.485 3.3z" id="i"/><path id="k" d="M0.0598086124 0.36L6.04066986 0.36 6.04066986 2.76 0.0598086124 2.76z"/><path d="M8.732 6c-.718 1.56-3.17 1.98-5.383.9S-.12 3.72.658 2.1C1.376.54 3.828.12 6.04 1.2S9.51 4.38 8.732 6z" id="m"/><path d="M3.29 11.16v-.84C1.195 10.14.358 8.94.358 7.74h1.555c.06.66.538 1.2 1.375 1.32V6.42l-.538-.12C1.615 6.06.538 5.34.538 3.84c0-1.56 1.196-2.4 2.751-2.52V.48h1.017v.84c1.615.18 2.692 1.14 2.692 2.52H5.502c0-.6-.478-1.14-1.196-1.26V5.1l.538.12c1.316.3 2.333.96 2.333 2.46 0 1.56-1.136 2.52-2.87 2.64v.84H3.288zm-.18-6.42c.06 0 .18.06.24.06V2.52c-.659.06-1.197.48-1.197 1.14 0 .48.3.9.957 1.08zM4.426 6.6c-.06 0-.12 0-.18-.06V9c.778-.06 1.316-.54 1.316-1.26.06-.54-.299-.9-1.136-1.14z" id="o"/></defs><g transform="translate(1)" fill="none" fill-rule="evenodd"><g transform="translate(11.962 1.8)" stroke="#BABEC5" stroke-linecap="round" stroke-linejoin="round" stroke-width="1.2"><path d="M23.325 26.76s-.18 3-4.186 3c-4.067 0-4.187-3-4.187-3h5.383"/><path d="M29.306 11.76v13.98c0 4.56-3.648 8.22-8.134 8.22H12.38c-4.485 0-8.134-3.66-8.134-8.22v-1.38"/><path d="M.06 31.56V11.1c0-5.4 4.186-5.34 4.186-5.34.658 0 1.137-.48 1.077-1.14 0 0-.479-4.2 4.904-4.2h9.929c3.468 0 7.177 4.38 7.177 4.38.418.48 1.256 1.2 1.794 1.56l3.768 3c.658 0 .658.12 0 .18 0 0-10.766 1.38-17.943-4.92v3.6c0 .66-.538 1.2-1.196 1.26 0 0-1.196.06-4.785-3.66v7.2c0 .66-.538 1.26-1.196 1.32 0 0-2.392.3-2.392 3.48s2.392 3.48 2.392 3.48c.658.06 1.196.66 1.196 1.32v3c0 .66.18.72.419.06 0 0 1.196-3.06 9.749-3.06 5.98 0 7.775 3 7.775 3"/><path d="M29.306 13.56c-2.392 1.8-6.579 1.32-6.579 1.32-.658-.06-1.196.42-1.196 1.08v3"/></g><g transform="translate(62.799 7.2)"><mask id="b" fill="#fff"><use xlink:href="#a"/></mask><path fill="#53B700" mask="url(#b)" d="M-2.74473684 9.220776L11.7160467 9.220776 11.7160467 -2.44077 -2.74473684 -2.44077z"/></g><g transform="translate(77.153)"><mask id="d" fill="#fff"><use xlink:href="#c"/></mask><path fill="#53B700" mask="url(#d)" d="M-2.85592105 10.20261L11.8271711 10.20261 11.8271711 -2.76261 -2.85592105 -2.76261z"/></g><g transform="translate(94.498 14.4)"><mask id="f" fill="#fff"><use xlink:href="#e"/></mask><path fill="#53B700" mask="url(#f)" d="M-2.50550239 8.7864L11.9552811 8.7864 11.9552811 -2.940516 -2.50550239 -2.940516z"/></g><g transform="translate(98.086 37.2)"><mask id="h" fill="#fff"><use xlink:href="#g"/></mask><path fill="#53B700" mask="url(#h)" d="M-2.96417464 8.333124L11.8158433 8.333124 11.8158433 -2.81313 -2.96417464 -2.81313z"/></g><g transform="translate(55.622 16.8)" stroke="#BABEC5" stroke-linecap="round" stroke-linejoin="round" stroke-width="1.2"><path d="M16.746 34.56v5.4m2.99-5.4v4.2m2.991-24l10.766-1.62c.658-.12 1.196.36 1.196 1.02v6c0 .66-.419 1.08-.897.9-.479-.18-.897-.3-.897-.3"/><path d="M24.5215311 12.36L17.3444976 10.56 5.98086124 14.76"/><path d="M4.844 18.96c0 8.82-3.588 8.28-3.588 12.6 0 5.52 2.093 7.2 6.04 7.2h2.871v-1.8c0-1.68 1.316-3 2.99-3h8.374c.658 0 1.196.54 1.196 1.2v4.2c0 1.68-1.316 3-2.99 3h-8.971m-2.99-31.2l-6.64 2.58C.478 13.98 0 14.7 0 15.36v4.5c0 .66.478.96 1.077.72l3.708-1.62m3.588-11.4C5.921 8.7 3.47 8.64 2.99 7.56c-.418-.9.718-2.52 2.453-3.6m9.51.12c-.54.3-1.197.54-1.855.72-2.572.72-4.964.36-5.263-.78-.3-1.14 1.555-2.58 4.127-3.3 1.076-.3 2.153-.42 2.99-.36m1.794 6.6c-.717.54-1.734 1.08-2.87 1.44-1.436.36-2.752.48-3.709.24m15.61-6.48c.539.06 1.077.12 1.615.3 2.632.66 4.546 2.1 4.307 3.3-.3 1.14-2.632 1.56-5.323.96-.658-.18-1.316-.36-1.854-.66m5.98 2.7c-.299 1.14-2.571 1.56-5.143.9-1.735-.42-3.17-1.26-3.828-2.1"/></g><g transform="translate(71.172 15)"><mask id="j" fill="#fff"><use xlink:href="#i"/></mask><path fill="#53B700" mask="url(#j)" d="M-2.99043062 9.96L11.9617225 9.96 11.9617225 -2.64 -2.99043062 -2.64z"/></g><g transform="translate(0 31.8)" stroke="#BABEC5" stroke-linecap="round" stroke-linejoin="round" stroke-width="1.2"><path d="M63.397 3.96l4.187-1.8 10.765 3 7.177-3c0 8.58 3.47 10.98 3.589 13.8.299 6-2.452 7.8-6.28 7.8h-2.093M12.022.36v7.8c0 .66-.539 1.2-1.197 1.2H7.117C3.23 9.36.06 12.54.06 16.44v11.52m20.753-19.2l3.11 7.2 4.247-4.2 4.186 4.2 2.393-7.8h6.579c3.947 0 5.98 2.4 7.177 6.48l3.05 13.56"/><path d="M14.414 11.76v8.4c0 .66.538 1.2 1.196 1.2h20.933c.658 0 1.196-.54 1.196-1.2v-9.6m-26.316 3v14.4m29.247-14.4v14.4"/></g><g transform="translate(13.756 54.6)"><mask id="l" fill="#fff"><use xlink:href="#k"/></mask><path fill="#53B700" mask="url(#l)" d="M-2.93062201 5.76L9.03110048 5.76 9.03110048 -2.64 -2.93062201 -2.64z"/></g><path d="M69.378 50.76v5.4" stroke="#BABEC5" stroke-width="1.2" stroke-linecap="round" stroke-linejoin="round"/><g transform="translate(116.029 13.2)"><mask id="n" fill="#fff"><use xlink:href="#m"/></mask><path fill="#53B700" mask="url(#n)" d="M-2.56363636 10.501188L11.9536304 10.501188 11.9536304 -2.401188 -2.56363636 -2.401188z"/></g><g transform="translate(68.78 37.2)"><mask id="p" fill="#fff"><use xlink:href="#o"/></mask><path fill="#53B700" mask="url(#p)" d="M-2.63157895 14.16L10.1674641 14.16 10.1674641 -2.52 -2.63157895 -2.52z"/></g></g></svg>