<svg width="90" height="69" viewBox="0 0 90 69" xmlns="http://www.w3.org/2000/svg"><title>Free up time</title><g transform="translate(1 1)" fill="none" fill-rule="evenodd"><path d="M65.682 31.455l3.63-.63c.997-.089 1.723-1.078 1.542-2.156l-1.361-9.886c-.182-.988-.726-1.797-1.18-1.797-.453 0-1.179.809-1.542 1.707l-2.268 5.662a2.907 2.907 0 0 1-2.45 1.708H47.539c-1.18.09-2.359.449-3.357.988L27.398 37.386c-.09 0-.182.09-.272.09-2.268 1.079-4.99.09-6.079-2.157l-5.352-11.144c-.544-1.078-1.361-1.977-2.268-2.696l-4.9-3.505-.543-.539c-1.361-1.438-1.27-3.685.272-5.033l4.808-4.224" stroke="#BABEC5" stroke-width="1.8" stroke-linecap="round" stroke-linejoin="round"/><path d="M43.002 35.949l1.996-.989a11.344 11.344 0 0 1 3.447-.809h12.248c.998 0 1.814-.809 1.814-1.797v-3.595m-34.02-20.49l2.812 1.078c.998.36.998.988.09 1.438l-7.438 3.684m-2.813-3.235l2.994-1.168a3.449 3.449 0 0 0 1.724-4.494l-1.18-3.145C24.041.539 21.955-.45 20.05.27l-3.175 1.168c0 .09-.09.09-.09.09-1.724.719-2.631 2.696-1.906 4.493l4.083 10.156m0 0l-1.361.899c-.816.449-1.905.359-2.63-.36l-1.09-.989c-.635-.539-.816-1.437-.362-2.156l.907-.9" stroke="#BABEC5" stroke-width="1.8" stroke-linecap="round" stroke-linejoin="round"/><path d="M38.012 27.95l-3.991-10.066c-.363-.988 0-2.067.907-2.606l2.903-1.797a3.182 3.182 0 0 0 1.36-1.528c.908-1.798.091-3.954-1.723-4.763l-9.435-4.404M17.146 44.037l26.31-5.033h.09c.998-.18 1.815.54 1.996 1.528l.272 1.797c.182.989-.453 1.888-1.451 2.067L12.61 50.058h-.272c-.907 0-1.633-.629-1.633-1.527L9.98 35.949c-.09-1.169-.363-2.337-.725-3.505L.454 7.1c-.091-.18-.091-.45-.091-.63.09-.628.726-1.168 1.36-1.078H9.89m9.072 56.62l7.439-3.685c.998-.54 1.542-1.528 1.633-2.607v-8.088m9.98 14.38l-9.98-4.494m53.526 8.987H64.322a1.811 1.811 0 0 1-1.815-1.798v-20.67c0-.989-.816-1.797-1.814-1.797h-5.444a1.811 1.811 0 0 1-1.814-1.798v-.899c0-.988.817-1.797 1.814-1.797h30.846c.181.09.272 0 .453 0 .726-.18 1.18-.989.998-1.708L84.28 20.67" stroke="#BABEC5" stroke-width="1.8" stroke-linecap="round" stroke-linejoin="round"/><ellipse fill="#B9BDC4" fill-rule="nonzero" cx="38.466" cy="66.055" rx="1.361" ry="1.348"/><ellipse fill="#B9BDC4" fill-rule="nonzero" cx="28.487" cy="66.055" rx="1.361" ry="1.348"/><ellipse fill="#B9BDC4" fill-rule="nonzero" cx="18.507" cy="66.055" rx="1.361" ry="1.348"/><path d="M76.025 30.107c-.998-.27-1.543-1.258-1.27-2.157l7.257-26.242C82.285.719 83.282.18 84.28.359l.545.09h.09c.908.27 1.452 1.259 1.18 2.157L78.837 28.85c-.272.988-1.18 1.528-2.177 1.348l-.635-.09z" fill="#53B700" fill-rule="nonzero"/></g></svg>