<svg width="85" height="66" viewBox="0 0 85 66" xmlns="http://www.w3.org/2000/svg"><title>Hello organised</title><g transform="translate(0 1)" fill="none" fill-rule="evenodd"><path fill="#53B700" fill-rule="nonzero" d="M56.043956 1.85714286L69.1208791 8.35714286 56.043956 13.9285714z"/><path d="M53.242 42.714V2.786M39.23 8.357V4.643c0-1.022-.84-1.857-1.868-1.857h-1.868a1.868 1.868 0 0 0-1.869 1.857v3.714m-4.763.929l-7.94-7.893c-.747-.743-1.961-.743-2.615 0l-.187.186c-.747.742-.747 1.95 0 2.6l5.884 5.85m29.237 3.992l-4.017 2.693c-.84.557-2.241.465-2.989-.185L42.033 13m.934 16.807l2.802 12.907m-4.67 0L38.67 31.571c-.186-1.021-.84-1.764-1.307-1.764-.467 0-.934.836-.934 1.857v11.05m14.01-21.357s-.653.464-1.4.929c-.748.557-2.055.371-2.803-.279l-2.709-2.228c-.84-.558-1.494-.279-1.494.742v3.25c0 .743-.84 1.3-1.868 1.3h-8.407" stroke="#BABEC5" stroke-width="1.854" stroke-linecap="round" stroke-linejoin="round"/><path d="M70.055 64.071l-13.73-17.085c-.655-.836-2.056-1.486-3.083-1.486H33.626c-1.027 0-1.868-.743-1.868-1.764V17.643m-3.736 13c-7.286.65-11.302 5.571-12.797 12.071H1.868m2.802 5.572h23.352c1.027 0 1.401.65.747 1.485l-10.088 14.3m45.77-13h17.747c.56-.928.934-2.878.934-4.55 0-5.571-3.83-10.121-9.06-11.328v-.743c0-7.707-6.259-13.929-14.012-13.929-1.4 0-2.708.279-3.923.929M8.407 53.857H18.68" stroke="#BABEC5" stroke-width="1.854" stroke-linecap="round" stroke-linejoin="round"/><path d="M32.692 4.643h7.473V1.857C40.165.836 39.325 0 38.297 0H34.56a1.868 1.868 0 0 0-1.868 1.857v2.786z" fill="#53B700" fill-rule="nonzero"/><path fill="#53B700" fill-rule="nonzero" d="M39.2307692 2.78571429L43.9010989 2.78571429 43.9010989 4.64285714 39.2307692 4.64285714z"/><path d="M38.297 10.214h-4.67s-9.341 10.215-17.748 6.5" stroke="#53B700" stroke-width="3.708" stroke-linecap="round"/></g></svg>